<svg width="53" height="51" viewBox="0 0 53 51" fill="none" xmlns="http://www.w3.org/2000/svg">
<path opacity="0.21" d="M33.5132 0.44754C44.1892 0.447691 52.8433 9.10257 52.8433 19.7786V31.5452C52.8431 42.2211 44.1891 50.8751 33.5132 50.8753H19.3979C8.72192 50.8753 0.0670337 42.2212 0.0668945 31.5452V19.7786C0.0668945 9.10248 8.72184 0.44754 19.3979 0.44754H33.5132Z" fill="#FEC53D"/>
<path fill-rule="evenodd" clip-rule="evenodd" d="M13.2609 20.8848L24.6084 27.1447C24.7305 27.2121 24.8587 27.2608 24.9891 27.2917V39.4325L14.0702 33.2582C13.5686 32.9746 13.2609 32.459 13.2609 31.9021V20.8848ZM39.6496 20.7184V31.902C39.6496 32.459 39.3419 32.9746 38.8402 33.2582L27.9214 39.4325V27.1853C27.948 27.1726 27.9743 27.1591 28.0004 27.1447L39.6496 20.7184Z" fill="#FEC53D"/>
<path opacity="0.499209" fill-rule="evenodd" clip-rule="evenodd" d="M13.6172 17.8464C13.7558 17.6792 13.9307 17.5379 14.1347 17.4341L25.6796 11.5586C26.1643 11.312 26.7456 11.312 27.2303 11.5586L38.7752 17.4341C38.9324 17.5141 39.0724 17.6164 39.1918 17.7357L26.534 24.7185C26.4508 24.7644 26.3741 24.8169 26.3041 24.875C26.2342 24.8169 26.1574 24.7644 26.0742 24.7185L13.6172 17.8464Z" fill="#FEC53D"/>
</svg>
