<svg width="72" height="71" viewBox="0 0 72 71" fill="none" xmlns="http://www.w3.org/2000/svg">
<path d="M36 2.95833L9.375 14.7917V32.5417C9.375 48.9604 20.735 64.3142 36 68.0417C51.265 64.3142 62.625 48.9604 62.625 32.5417V14.7917L36 2.95833ZM36 14.4958C37.7553 14.4958 39.4712 15.0163 40.9307 15.9915C42.3902 16.9667 43.5277 18.3528 44.1994 19.9745C44.8712 21.5962 45.0469 23.3807 44.7045 25.1023C44.362 26.8238 43.5168 28.4052 42.2756 29.6464C41.0344 30.8876 39.453 31.7329 37.7314 32.0753C36.0098 32.4177 34.2254 32.242 32.6037 31.5703C30.982 30.8985 29.5959 29.761 28.6207 28.3015C27.6455 26.842 27.125 25.1261 27.125 23.3708C27.125 21.017 28.06 18.7596 29.7244 17.0953C31.3888 15.4309 33.6462 14.4958 36 14.4958ZM36 37.8667C41.9167 37.8667 53.75 41.0912 53.75 46.9783C51.807 49.9074 49.1694 52.3102 46.0723 53.9723C42.9752 55.6345 39.5149 56.5043 36 56.5043C32.4851 56.5043 29.0248 55.6345 25.9277 53.9723C22.8306 52.3102 20.1929 49.9074 18.25 46.9783C18.25 41.0912 30.0833 37.8667 36 37.8667Z" fill="#1E1E1E"/>
</svg>
