<svg width="54" height="51" viewBox="0 0 54 51" fill="none" xmlns="http://www.w3.org/2000/svg">
<path opacity="0.3" d="M34.4302 0.44754C45.1062 0.447691 53.7603 9.10257 53.7603 19.7786V31.5452C53.7601 42.2211 45.1061 50.8751 34.4302 50.8753H20.3149C9.63891 50.8753 0.984026 42.2212 0.983887 31.5452V19.7786C0.983887 9.10248 9.63883 0.44754 20.3149 0.44754H34.4302Z" fill="#FF9066"/>
<path opacity="0.78" fill-rule="evenodd" clip-rule="evenodd" d="M26.1688 20.4567C26.1864 20.2384 26.3687 20.0702 26.5877 20.0702H26.9942C27.2093 20.0702 27.3897 20.2327 27.4121 20.4467L27.9591 25.6733L31.8451 27.7951C31.9801 27.8687 32.064 28.0102 32.064 28.1639V28.4914C32.064 28.7665 31.804 28.9674 31.5378 28.8981L25.9547 27.4431C25.7574 27.3917 25.6254 27.206 25.6418 27.0028L26.1688 20.4567Z" fill="#FF9066"/>
<path opacity="0.901274" d="M20.2129 13.1905C20.2947 12.8636 20.7307 12.7676 20.958 13.0265L22.5537 14.8429C24.0338 14.2409 25.662 13.9064 27.3721 13.9063C34.1731 13.9063 39.6873 19.1746 39.6875 25.6729C39.6875 32.1714 34.1732 37.4395 27.3721 37.4395C20.5711 37.4394 15.0576 32.1713 15.0576 25.6729C15.0576 24.5694 15.2173 23.5012 15.5146 22.4884L17.7725 23.0938C17.5285 23.9251 17.4034 24.7899 17.4033 25.6729C17.4033 30.9335 21.8665 35.1981 27.3721 35.1983C32.8778 35.1983 37.3418 30.9336 37.3418 25.6729C37.3416 20.4124 32.8777 16.1476 27.3721 16.1476C26.2571 16.1476 25.1715 16.3231 24.1475 16.6573L25.7451 18.4767C25.9728 18.736 25.7963 19.1304 25.4443 19.1495L19.2129 19.4874C18.9247 19.5028 18.7006 19.2469 18.7676 18.9786L20.2129 13.1905Z" fill="#FF9066"/>
</svg>
