<svg width="54" height="51" viewBox="0 0 54 51" fill="none" xmlns="http://www.w3.org/2000/svg">
<path opacity="0.21" d="M34.0542 0.44754C44.7302 0.447691 53.3843 9.10257 53.3843 19.7786V31.5452C53.3841 42.2211 44.7301 50.8751 34.0542 50.8753H19.939C9.26294 50.8753 0.608049 42.2212 0.60791 31.5452V19.7786C0.60791 9.10248 9.26285 0.44754 19.939 0.44754H34.0542Z" fill="#8280FF"/>
<path opacity="0.587821" d="M34.033 21.1795C35.9761 21.1795 37.5514 22.6842 37.5515 24.5408C37.5515 26.3975 35.9761 27.9031 34.033 27.9031C32.0899 27.903 30.5144 26.3974 30.5144 24.5408C30.5145 22.6843 32.09 21.1797 34.033 21.1795ZM23.4783 15.576C26.0691 15.5761 28.1696 17.5829 28.1697 20.0584C28.1697 22.534 26.0691 24.5408 23.4783 24.5408C20.8874 24.5408 18.7869 22.534 18.7869 20.0584C18.7869 17.5828 20.8874 15.576 23.4783 15.576Z" fill="#8280FF"/>
<path d="M23.4587 26.7823C29.0739 26.7824 33.6873 29.3521 34.031 34.8506C34.0447 35.0697 34.0309 35.747 33.1501 35.7471H13.7761C13.482 35.7471 12.8988 35.141 12.9236 34.8497C13.3783 29.5014 17.9215 26.7823 23.4587 26.7823ZM33.5662 29.0255C37.5609 29.0675 40.8226 30.9967 41.0681 35.0753C41.078 35.24 41.0672 35.7471 40.4314 35.7471H35.9089C35.9089 33.2253 35.0375 30.898 33.5662 29.0255Z" fill="#8280FF"/>
</svg>
