<svg width="54" height="51" viewBox="0 0 54 51" fill="none" xmlns="http://www.w3.org/2000/svg">
<path opacity="0.21" d="M33.9719 0.44754C44.6479 0.447691 53.302 9.10257 53.302 19.7786V31.5452C53.3019 42.2211 44.6478 50.8751 33.9719 50.8753H19.8567C9.18066 50.8753 0.525774 42.2212 0.525635 31.5452V19.7786C0.525635 9.10248 9.18058 0.44754 19.8567 0.44754H33.9719Z" fill="#4AD991"/>
<path d="M17.3364 34.8134H37.8607C38.6164 34.8134 39.229 35.3988 39.229 36.1208C39.229 36.8429 38.6164 37.4282 37.8607 37.4282H15.9681C15.2125 37.4282 14.5999 36.8429 14.5999 36.1208V15.2024C14.5999 14.4804 15.2125 13.8951 15.9681 13.8951C16.7238 13.8951 17.3364 14.4804 17.3364 15.2024V34.8134Z" fill="#4AD991"/>
<path opacity="0.5" d="M22.4395 29.1706C21.9227 29.6974 21.0568 29.7241 20.5055 29.2302C19.9542 28.7364 19.9262 27.909 20.4431 27.3822L25.5742 22.1526C26.074 21.6432 26.9046 21.599 27.4606 22.0523L31.5103 25.3543L36.7868 18.9682C37.2551 18.4015 38.1155 18.3048 38.7086 18.7522C39.3017 19.1996 39.4029 20.0217 38.9347 20.5885L32.7774 28.0406C32.2965 28.6227 31.4057 28.7064 30.8153 28.225L26.6775 24.8513L22.4395 29.1706Z" fill="#4AD991"/>
</svg>
